<svg xmlns="http://www.w3.org/2000/svg" width="23" height="29"><path id="pinterest" class="shp0" d="M10.05 17.85c-.21.84-.42 1.71-.64 2.56-.21.85-.4 1.7-.71 2.47-.52 1.29-1.18 2.52-2.05 3.53-.57.66-.45.4-.62.36-.14-.03-.15-.16-.17-.34-.14-1.02-.05-2.2 0-3.34.06-1.31.34-2.39.59-3.48.49-2.06.95-4.08 1.44-6.16.03-.14.12-.37.09-.44-.22-.58-.37-1.1-.43-1.7-.07-.7-.02-1.35.14-1.95.27-1.06.91-1.99 1.89-2.34.63-.21 1.32-.11 1.74.14.43.25.73.66.86 1.24.15.62.04 1.35-.08 1.89-.26 1.22-.61 2.14-.93 3.31-.16.59-.34 1.19-.19 1.81.13.58.43.98.85 1.28.42.31.92.48 1.62.46 1.23-.05 2.08-.83 2.65-1.57.91-1.19 1.47-2.79 1.68-4.69.06-.61.11-1.32.07-2.01-.09-1.29-.49-2.32-1.13-3.12a5.325 5.325 0 00-2.51-1.71c-1.04-.34-2.48-.45-3.75-.23-2.32.39-3.95 1.71-4.91 3.53-.51.95-.84 2.05-.84 3.41 0 1.05.26 1.86.68 2.5.13.2.32.37.45.6.19.32-.02.81-.12 1.16-.11.43-.12 1.01-.61 1.02-.21.01-.47-.14-.64-.24-1.31-.72-2.1-2.03-2.42-3.74-.2-1.03-.2-2.23 0-3.23.19-.97.54-1.86.93-2.58a9.276 9.276 0 013.46-3.57c1.12-.66 2.38-1.12 3.91-1.34.51-.08 1.03-.11 1.6-.13 1.67-.08 3.19.29 4.33.8 1.21.54 2.17 1.26 2.98 2.15.84.92 1.45 1.98 1.84 3.31.2.69.39 1.43.39 2.29 0 .85-.18 1.61-.3 2.37-.48 2.82-1.82 5.14-3.84 6.45-.49.32-1.08.62-1.76.81-.66.2-1.42.34-2.24.29-.79-.06-1.44-.27-1.98-.58-.54-.31-1-.68-1.32-1.25z"/></svg>