<svg xmlns="http://www.w3.org/2000/svg" width="28" height="24"><path id="twitter" class="shp0" d="M18.51 1.6c2.04-.04 3.12.71 4.15 1.65.88-.08 2.02-.57 2.69-.91l.66-.36c-.39 1.04-.91 1.85-1.71 2.47-.17.14-.35.32-.57.41v.01c1.14-.01 2.08-.52 2.97-.8v.01c-.47.74-1.1 1.5-1.78 2.04-.27.22-.55.44-.82.65.01 1.21-.02 2.36-.24 3.38-1.32 5.89-4.79 9.89-10.29 11.61-1.98.61-5.17.87-7.43.31-1.13-.28-2.14-.6-3.09-1.01-.53-.23-1.02-.49-1.49-.77-.15-.09-.31-.19-.46-.28.51.01 1.11.15 1.68.06.51-.08 1.02-.06 1.5-.16 1.19-.26 2.24-.61 3.15-1.14.44-.26 1.11-.56 1.42-.93-.59.01-1.12-.13-1.56-.28-1.7-.6-2.69-1.71-3.33-3.36.51.05 2 .19 2.34-.11-.65-.03-1.27-.41-1.71-.69-1.37-.85-2.49-2.28-2.48-4.49.18.08.36.17.54.25.34.15.69.23 1.1.31.18.04.52.14.72.06h-.03c-.26-.3-.69-.51-.96-.84-.87-1.09-1.7-2.77-1.18-4.76.14-.51.35-.96.57-1.37.01 0 .02.01.02.01.11.22.33.37.48.55.45.56 1 1.06 1.56 1.5 1.92 1.5 3.65 2.42 6.42 3.1.7.17 1.52.31 2.36.31-.24-.69-.16-1.8.02-2.47.47-1.67 1.49-2.88 2.98-3.52.35-.16.75-.27 1.16-.36.22-.03.43-.05.64-.08z"/></svg>